<svg class="main-svg" xmlns="http://www.w3.org/2000/svg" xmlns:xlink="http://www.w3.org/1999/xlink" width="700" height="450" style="" viewBox="0 0 700 450"><rect x="0" y="0" width="700" height="450" style="fill: rgb(255, 255, 255); fill-opacity: 1;"/><defs id="defs-4525ef"><g class="clips"><clipPath id="clip4525efxyplot" class="plotclip"><rect width="575" height="390"/></clipPath><clipPath class="axesclip" id="clip4525efx"><rect x="30" y="0" width="575" height="450"/></clipPath><clipPath class="axesclip" id="clip4525efy"><rect x="0" y="30" width="700" height="390"/></clipPath><clipPath class="axesclip" id="clip4525efxy"><rect x="30" y="30" width="575" height="390"/></clipPath></g><g class="gradients"/></defs><g class="bglayer"/><g class="layer-below"><g class="imagelayer"/><g class="shapelayer"/></g><g class="cartesianlayer"><g class="subplot xy"><g class="layer-subplot"><g class="shapelayer"/><g class="imagelayer"/></g><g class="gridlayer"><g class="x"><path class="xgrid crisp" transform="translate(193.71,0)" d="M0,30v390" style="stroke: rgb(238, 238, 238); stroke-opacity: 1; stroke-width: 1px;"/><path class="xgrid crisp" transform="translate(363.29,0)" d="M0,30v390" style="stroke: rgb(238, 238, 238); stroke-opacity: 1; stroke-width: 1px;"/><path class="xgrid crisp" transform="translate(532.86,0)" d="M0,30v390" style="stroke: rgb(238, 238, 238); stroke-opacity: 1; stroke-width: 1px;"/></g><g class="y"><path class="ygrid crisp" transform="translate(0,402.13)" d="M30,0h575" style="stroke: rgb(238, 238, 238); stroke-opacity: 1; stroke-width: 1px;"/><path class="ygrid crisp" transform="translate(0,361.36)" d="M30,0h575" style="stroke: rgb(238, 238, 238); stroke-opacity: 1; stroke-width: 1px;"/><path class="ygrid crisp" transform="translate(0,320.6)" d="M30,0h575" style="stroke: rgb(238, 238, 238); stroke-opacity: 1; stroke-width: 1px;"/><path class="ygrid crisp" transform="translate(0,279.84000000000003)" d="M30,0h575" style="stroke: rgb(238, 238, 238); stroke-opacity: 1; stroke-width: 1px;"/><path class="ygrid crisp" transform="translate(0,239.07)" d="M30,0h575" style="stroke: rgb(238, 238, 238); stroke-opacity: 1; stroke-width: 1px;"/><path class="ygrid crisp" transform="translate(0,198.31)" d="M30,0h575" style="stroke: rgb(238, 238, 238); stroke-opacity: 1; stroke-width: 1px;"/><path class="ygrid crisp" transform="translate(0,157.54000000000002)" d="M30,0h575" style="stroke: rgb(238, 238, 238); stroke-opacity: 1; stroke-width: 1px;"/><path class="ygrid crisp" transform="translate(0,116.78)" d="M30,0h575" style="stroke: rgb(238, 238, 238); stroke-opacity: 1; stroke-width: 1px;"/><path class="ygrid crisp" transform="translate(0,76.00999999999999)" d="M30,0h575" style="stroke: rgb(238, 238, 238); stroke-opacity: 1; stroke-width: 1px;"/><path class="ygrid crisp" transform="translate(0,35.25)" d="M30,0h575" style="stroke: rgb(238, 238, 238); stroke-opacity: 1; stroke-width: 1px;"/></g></g><g class="zerolinelayer"/><path class="xlines-below"/><path class="ylines-below"/><g class="overlines-below"/><g class="xaxislayer-below"/><g class="yaxislayer-below"/><g class="overaxes-below"/><g class="plot" transform="translate(30, 30)" clip-path="url(#clip4525efxyplot)"><g class="scatterlayer mlayer"><g class="trace scatter traceac9b54" style="stroke-miterlimit: 2; opacity: 1;"><g class="fills"/><g class="errorbars"/><g class="lines"><path class="js-line" style="vector-effect: non-scaling-stroke; fill: none; stroke: rgb(31, 119, 180); stroke-opacity: 1; stroke-width: 2px; opacity: 1;" d="M0,45.17L5.87,69.94L11.73,180.29L17.6,156.35L23.47,173.97L29.34,246.35L35.2,221.94L41.07,217.79L46.94,202.57L52.81,207.34L58.67,254.13L64.54,255.96L70.41,269.8L76.28,253.55L82.14,250.21L88.01,278.21L93.88,272.48L99.74,251.46L105.61,239.23L111.48,275.41L117.35,262.06L123.21,269.67L129.08,258.43L134.95,278.49L140.82,281.63L146.68,260.09L152.55,259.81L158.42,273.89L164.29,273.15L170.15,275.94L176.02,267.74L181.89,277.91L187.76,261.45L193.62,268.1L199.49,262.7L205.36,264.71L211.22,265.45L217.09,270.33L222.96,257.37L228.83,233.46L234.69,259.13L240.56,266.26L246.43,260.35L258.16,268.94L264.03,257.67L269.9,251.15L275.77,253.45L281.63,253.8L287.5,240.67L293.37,256.26L299.23,247.06L305.1,257.08L310.97,253.94L316.84,250.87L322.7,246.43L334.44,244.01L340.31,249.19L346.17,249.5L352.04,246.31L357.91,248.87L363.78,256.49L369.64,251.79L375.51,249.48L387.24,238.58L393.11,243.56L398.98,248.4L404.85,242.72L410.71,243.73L416.58,241.88L422.45,244.58L428.32,249.25L434.18,248.39L440.05,238.87L445.92,242.98L451.79,240.14L457.65,239.71L463.52,230.64L469.39,244.5L475.26,241.37L481.12,239.7L486.99,239.28L492.86,239.56L498.72,238.59L504.59,242.43L510.46,241.51L516.33,243.54L522.19,239.8L533.93,236.07L539.8,241.85L545.66,236.18L551.53,242.01L557.4,238.37L563.27,236.67L569.13,232.75L575,232.68"/></g><g class="points"/><g class="text"/></g><g class="trace scatter trace9e6564" style="stroke-miterlimit: 2; opacity: 1;"><g class="fills"/><g class="errorbars"/><g class="lines"><path class="js-line" style="vector-effect: non-scaling-stroke; fill: none; stroke: rgb(255, 127, 14); stroke-opacity: 1; stroke-width: 2px; opacity: 1;" d="M0,19.5L5.87,76.67L11.73,115.31L17.6,135.18L23.47,174.34L29.34,159.89L35.2,203.28L41.07,184.24L46.94,189.6L52.81,208.71L58.67,217.27L64.54,211.21L70.41,239.85L76.28,247.03L82.14,251.31L88.01,232.07L93.88,244.98L99.74,269.75L105.61,274.24L111.48,264.42L117.35,288.22L123.21,275.19L129.08,275.07L134.95,299.21L140.82,292.35L146.68,303.69L152.55,296.64L158.42,302.38L164.29,278.8L170.15,294.73L176.02,299.1L181.89,299.87L187.76,314.45L193.62,317.13L199.49,309.98L205.36,315.46L211.22,311.68L217.09,314.94L222.96,321.64L228.83,325.79L234.69,324.53L240.56,323.67L246.43,344.5L252.3,334.5L258.16,348.5L264.03,343.19L269.9,345.13L275.77,335.4L281.63,329.7L287.5,337.09L293.37,340.94L299.23,357.97L305.1,350.99L310.97,339.54L316.84,349.2L322.7,325.53L328.57,343.98L334.44,354.24L340.31,341.65L346.17,341.26L352.04,350.5L357.91,355.77L363.78,355.6L369.64,347.57L375.51,357.47L381.38,359.12L387.24,348.79L393.11,354.74L398.98,364.99L404.85,353.27L410.71,348.71L416.58,361.18L422.45,360.59L428.32,355.25L434.18,354.03L440.05,351.82L445.92,356.33L451.79,362.64L457.65,357.95L463.52,364.94L469.39,365.05L475.26,361.8L481.12,370.5L486.99,368.9L492.86,359.24L498.72,360.66L504.59,369.74L510.46,354.29L516.33,361.63L522.19,362.38L528.06,353.58L533.93,358.89L539.8,369.49L545.66,364.66L551.53,369.02L557.4,354.5L563.27,364.16L569.13,369.17L575,355.94"/></g><g class="points"/><g class="text"/></g></g></g><g class="overplot"/><path class="xlines-above crisp" style="fill: none;" d="M0,0"/><path class="ylines-above crisp" style="fill: none;" d="M0,0"/><g class="overlines-above"/><g class="xaxislayer-above"><g class="xtick"><text text-anchor="middle" x="0" y="433" style="font-family: TOBESTRIPPEDOpen SansTOBESTRIPPED, verdana, arial, sans-serif; font-size: 12px; fill: rgb(68, 68, 68); fill-opacity: 1; white-space: pre;" transform="translate(193.71,0)">5k</text></g><g class="xtick"><text text-anchor="middle" x="0" y="433" style="font-family: TOBESTRIPPEDOpen SansTOBESTRIPPED, verdana, arial, sans-serif; font-size: 12px; fill: rgb(68, 68, 68); fill-opacity: 1; white-space: pre;" transform="translate(363.29,0)">10k</text></g><g class="xtick"><text text-anchor="middle" x="0" y="433" style="font-family: TOBESTRIPPEDOpen SansTOBESTRIPPED, verdana, arial, sans-serif; font-size: 12px; fill: rgb(68, 68, 68); fill-opacity: 1; white-space: pre;" transform="translate(532.86,0)">15k</text></g></g><g class="yaxislayer-above"><g class="ytick"><text text-anchor="end" x="29" y="4.199999999999999" style="font-family: TOBESTRIPPEDOpen SansTOBESTRIPPED, verdana, arial, sans-serif; font-size: 12px; fill: rgb(68, 68, 68); fill-opacity: 1; white-space: pre;" transform="translate(0,402.13)">0.1</text></g><g class="ytick"><text text-anchor="end" x="29" y="4.199999999999999" style="font-family: TOBESTRIPPEDOpen SansTOBESTRIPPED, verdana, arial, sans-serif; font-size: 12px; fill: rgb(68, 68, 68); fill-opacity: 1; white-space: pre;" transform="translate(0,361.36)">0.2</text></g><g class="ytick"><text text-anchor="end" x="29" y="4.199999999999999" style="font-family: TOBESTRIPPEDOpen SansTOBESTRIPPED, verdana, arial, sans-serif; font-size: 12px; fill: rgb(68, 68, 68); fill-opacity: 1; white-space: pre;" transform="translate(0,320.6)">0.3</text></g><g class="ytick"><text text-anchor="end" x="29" y="4.199999999999999" style="font-family: TOBESTRIPPEDOpen SansTOBESTRIPPED, verdana, arial, sans-serif; font-size: 12px; fill: rgb(68, 68, 68); fill-opacity: 1; white-space: pre;" transform="translate(0,279.84000000000003)">0.4</text></g><g class="ytick"><text text-anchor="end" x="29" y="4.199999999999999" style="font-family: TOBESTRIPPEDOpen SansTOBESTRIPPED, verdana, arial, sans-serif; font-size: 12px; fill: rgb(68, 68, 68); fill-opacity: 1; white-space: pre;" transform="translate(0,239.07)">0.5</text></g><g class="ytick"><text text-anchor="end" x="29" y="4.199999999999999" style="font-family: TOBESTRIPPEDOpen SansTOBESTRIPPED, verdana, arial, sans-serif; font-size: 12px; fill: rgb(68, 68, 68); fill-opacity: 1; white-space: pre;" transform="translate(0,198.31)">0.6</text></g><g class="ytick"><text text-anchor="end" x="29" y="4.199999999999999" style="font-family: TOBESTRIPPEDOpen SansTOBESTRIPPED, verdana, arial, sans-serif; font-size: 12px; fill: rgb(68, 68, 68); fill-opacity: 1; white-space: pre;" transform="translate(0,157.54000000000002)">0.7</text></g><g class="ytick"><text text-anchor="end" x="29" y="4.199999999999999" style="font-family: TOBESTRIPPEDOpen SansTOBESTRIPPED, verdana, arial, sans-serif; font-size: 12px; fill: rgb(68, 68, 68); fill-opacity: 1; white-space: pre;" transform="translate(0,116.78)">0.8</text></g><g class="ytick"><text text-anchor="end" x="29" y="4.199999999999999" style="font-family: TOBESTRIPPEDOpen SansTOBESTRIPPED, verdana, arial, sans-serif; font-size: 12px; fill: rgb(68, 68, 68); fill-opacity: 1; white-space: pre;" transform="translate(0,76.00999999999999)">0.9</text></g><g class="ytick"><text text-anchor="end" x="29" y="4.199999999999999" style="font-family: TOBESTRIPPEDOpen SansTOBESTRIPPED, verdana, arial, sans-serif; font-size: 12px; fill: rgb(68, 68, 68); fill-opacity: 1; white-space: pre;" transform="translate(0,35.25)">1</text></g></g><g class="overaxes-above"/></g></g><g class="polarlayer"/><g class="ternarylayer"/><g class="geolayer"/><g class="pielayer"/><g class="glimages"/><defs id="topdefs-4525ef"><g class="clips"/><clipPath id="legend4525ef"><rect width="71" height="48" x="0" y="0"/></clipPath></defs><g class="layer-above"><g class="imagelayer"/><g class="shapelayer"/></g><g class="infolayer"><g class="legend" pointer-events="all" transform="translate(616.5, 30)"><rect class="bg" shape-rendering="crispEdges" style="stroke: rgb(68, 68, 68); stroke-opacity: 1; fill: rgb(255, 255, 255); fill-opacity: 1; stroke-width: 0px;" width="71" height="48" x="0" y="0"/><g class="scrollbox" transform="translate(0, 0)" clip-path="url(#legend4525ef)"><g class="groups"><g class="traces" style="opacity: 1;" transform="translate(0, 14.5)"><g class="layers" style="opacity: 1;"><g class="legendfill"/><g class="legendlines"><path class="js-line" d="M5,0h30" style="fill: none; stroke: rgb(31, 119, 180); stroke-opacity: 1; stroke-width: 2px;"/></g><g class="legendsymbols"><g class="legendpoints"/></g></g><text class="legendtext user-select-none" text-anchor="start" style="font-family: TOBESTRIPPEDOpen SansTOBESTRIPPED, verdana, arial, sans-serif; font-size: 12px; fill: rgb(68, 68, 68); fill-opacity: 1; white-space: pre;" x="40" y="4.680000000000001">val</text><rect class="legendtoggle" style="cursor: pointer; fill: rgb(0, 0, 0); fill-opacity: 0;" pointer-events="all" x="0" y="-9.5" width="111" height="19"/></g><g class="traces" style="opacity: 1;" transform="translate(0, 33.5)"><g class="layers" style="opacity: 1;"><g class="legendfill"/><g class="legendlines"><path class="js-line" d="M5,0h30" style="fill: none; stroke: rgb(255, 127, 14); stroke-opacity: 1; stroke-width: 2px;"/></g><g class="legendsymbols"><g class="legendpoints"/></g></g><text class="legendtext user-select-none" text-anchor="start" style="font-family: TOBESTRIPPEDOpen SansTOBESTRIPPED, verdana, arial, sans-serif; font-size: 12px; fill: rgb(68, 68, 68); fill-opacity: 1; white-space: pre;" x="40" y="4.680000000000001">train</text><rect class="legendtoggle" style="cursor: pointer; fill: rgb(0, 0, 0); fill-opacity: 0;" pointer-events="all" x="0" y="-9.5" width="111" height="19"/></g></g></g><rect class="scrollbar" rx="20" ry="3" width="0" height="0" style="fill: rgb(128, 139, 164); fill-opacity: 1;" x="0" y="0"/></g><g class="g-gtitle"><text class="gtitle" style="font-family: TOBESTRIPPEDOpen SansTOBESTRIPPED, verdana, arial, sans-serif; font-size: 17px; fill: rgb(68, 68, 68); opacity: 1; font-weight: normal; white-space: pre;" x="350" y="15" text-anchor="middle" dy="0em">loss</text></g><g class="g-xtitle" transform="translate(0,-26)"><text class="xtitle" style="font-family: TOBESTRIPPEDOpen SansTOBESTRIPPED, verdana, arial, sans-serif; font-size: 14px; fill: rgb(68, 68, 68); opacity: 1; font-weight: normal; white-space: pre;" x="317.5" y="472" text-anchor="middle">iterations</text></g><g class="g-ytitle" transform="translate(22,0)"><text class="ytitle" transform="rotate(-90,-8,225)" style="font-family: TOBESTRIPPEDOpen SansTOBESTRIPPED, verdana, arial, sans-serif; font-size: 14px; fill: rgb(68, 68, 68); opacity: 1; font-weight: normal; white-space: pre;" x="-8" y="225" text-anchor="middle">loss</text></g></g></svg>