<svg class="main-svg" xmlns="http://www.w3.org/2000/svg" xmlns:xlink="http://www.w3.org/1999/xlink" width="700" height="450" style="" viewBox="0 0 700 450"><rect x="0" y="0" width="700" height="450" style="fill: rgb(255, 255, 255); fill-opacity: 1;"/><defs id="defs-89fbd3"><g class="clips"><clipPath id="clip89fbd3xyplot" class="plotclip"><rect width="575" height="390"/></clipPath><clipPath class="axesclip" id="clip89fbd3x"><rect x="30" y="0" width="575" height="450"/></clipPath><clipPath class="axesclip" id="clip89fbd3y"><rect x="0" y="30" width="700" height="390"/></clipPath><clipPath class="axesclip" id="clip89fbd3xy"><rect x="30" y="30" width="575" height="390"/></clipPath></g><g class="gradients"/></defs><g class="bglayer"/><g class="layer-below"><g class="imagelayer"/><g class="shapelayer"/></g><g class="cartesianlayer"><g class="subplot xy"><g class="layer-subplot"><g class="shapelayer"/><g class="imagelayer"/></g><g class="gridlayer"><g class="x"><path class="xgrid crisp" transform="translate(110.62,0)" d="M0,30v390" style="stroke: rgb(238, 238, 238); stroke-opacity: 1; stroke-width: 1px;"/><path class="xgrid crisp" transform="translate(194.13,0)" d="M0,30v390" style="stroke: rgb(238, 238, 238); stroke-opacity: 1; stroke-width: 1px;"/><path class="xgrid crisp" transform="translate(277.64,0)" d="M0,30v390" style="stroke: rgb(238, 238, 238); stroke-opacity: 1; stroke-width: 1px;"/><path class="xgrid crisp" transform="translate(361.15,0)" d="M0,30v390" style="stroke: rgb(238, 238, 238); stroke-opacity: 1; stroke-width: 1px;"/><path class="xgrid crisp" transform="translate(444.66,0)" d="M0,30v390" style="stroke: rgb(238, 238, 238); stroke-opacity: 1; stroke-width: 1px;"/><path class="xgrid crisp" transform="translate(528.1700000000001,0)" d="M0,30v390" style="stroke: rgb(238, 238, 238); stroke-opacity: 1; stroke-width: 1px;"/></g><g class="y"><path class="ygrid crisp" transform="translate(0,396.18)" d="M30,0h575" style="stroke: rgb(238, 238, 238); stroke-opacity: 1; stroke-width: 1px;"/><path class="ygrid crisp" transform="translate(0,347.99)" d="M30,0h575" style="stroke: rgb(238, 238, 238); stroke-opacity: 1; stroke-width: 1px;"/><path class="ygrid crisp" transform="translate(0,299.8)" d="M30,0h575" style="stroke: rgb(238, 238, 238); stroke-opacity: 1; stroke-width: 1px;"/><path class="ygrid crisp" transform="translate(0,251.6)" d="M30,0h575" style="stroke: rgb(238, 238, 238); stroke-opacity: 1; stroke-width: 1px;"/><path class="ygrid crisp" transform="translate(0,203.41)" d="M30,0h575" style="stroke: rgb(238, 238, 238); stroke-opacity: 1; stroke-width: 1px;"/><path class="ygrid crisp" transform="translate(0,155.22)" d="M30,0h575" style="stroke: rgb(238, 238, 238); stroke-opacity: 1; stroke-width: 1px;"/><path class="ygrid crisp" transform="translate(0,107.02)" d="M30,0h575" style="stroke: rgb(238, 238, 238); stroke-opacity: 1; stroke-width: 1px;"/><path class="ygrid crisp" transform="translate(0,58.83)" d="M30,0h575" style="stroke: rgb(238, 238, 238); stroke-opacity: 1; stroke-width: 1px;"/></g></g><g class="zerolinelayer"/><path class="xlines-below"/><path class="ylines-below"/><g class="overlines-below"/><g class="xaxislayer-below"/><g class="yaxislayer-below"/><g class="overaxes-below"/><g class="plot" transform="translate(30, 30)" clip-path="url(#clip89fbd3xyplot)"><g class="scatterlayer mlayer"><g class="trace scatter traceba32e8" style="stroke-miterlimit: 2; opacity: 1;"><g class="fills"/><g class="errorbars"/><g class="lines"><path class="js-line" style="vector-effect: non-scaling-stroke; fill: none; stroke: rgb(31, 119, 180); stroke-opacity: 1; stroke-width: 2px; opacity: 1;" d="M0,200.72L2.89,223.21L5.78,162.17L8.67,186.26L11.56,162.17L14.45,144.5L17.34,141.28L20.23,130.04L23.12,115.58L26.01,131.64L28.89,99.51L31.78,139.68L34.67,99.51L37.56,122.01L40.45,113.97L43.34,94.7L46.23,109.15L49.12,85.06L52.01,120.4L54.9,142.89L57.79,73.81L60.68,109.15L63.57,118.79L66.46,126.82L69.35,126.82L72.24,147.71L75.13,102.73L78.02,113.97L80.9,118.79L83.79,130.04L86.68,120.4L89.57,91.48L92.46,94.7L95.35,117.19L98.24,122.01L101.13,81.84L104.02,99.51L106.91,112.37L109.8,120.4L112.69,88.27L115.58,88.27L118.47,88.27L121.36,104.33L124.25,110.76L127.14,101.12L130.03,89.88L132.91,83.45L135.8,102.73L138.69,80.24L141.58,73.81L144.47,78.63L147.36,70.6L150.25,91.48L153.14,89.88L156.03,86.66L158.92,93.09L161.81,89.88L164.7,97.91L167.59,86.66L170.48,101.12L173.37,73.81L176.26,75.42L179.15,75.42L182.04,83.45L184.92,85.06L187.81,77.03L190.7,81.84L193.59,78.63L196.48,88.27L199.37,93.09L202.26,78.63L205.15,78.63L208.04,83.45L210.93,80.24L213.82,78.63L216.71,78.63L219.6,80.24L222.49,93.09L225.38,81.84L228.27,81.84L231.16,85.06L234.05,89.88L236.93,81.84L239.82,88.27L242.71,85.06L245.6,88.27L248.49,73.81L251.38,89.88L254.27,88.27L257.16,81.84L260.05,91.48L262.94,86.66L265.83,83.45L268.72,93.09L271.61,85.06L274.5,89.88L277.39,83.45L280.28,89.88L283.17,88.27L286.06,88.27L288.94,85.06L291.83,86.66L294.72,86.66L297.61,83.45L300.5,83.45L303.39,88.27L306.28,85.06L309.17,86.66L312.06,89.88L314.95,86.66L317.84,86.66L323.62,89.88L326.51,85.06L329.4,91.48L332.29,88.27L335.18,85.06L338.07,85.06L340.95,88.27L343.84,89.88L352.51,85.06L355.4,88.27L358.29,86.66L361.18,78.63L364.07,86.66L366.96,75.42L369.85,80.24L372.74,70.6L375.63,88.27L378.52,88.27L384.3,88.27L387.19,85.06L395.85,89.88L398.74,78.63L401.63,86.66L404.52,99.51L407.41,96.3L410.3,96.3L413.19,81.84L416.08,85.06L418.97,89.88L421.86,85.06L424.75,89.88L427.64,86.66L430.53,93.09L433.42,89.88L436.31,91.48L439.2,88.27L442.09,88.27L444.97,85.06L447.86,85.06L450.75,83.45L453.64,88.27L456.53,89.88L459.42,85.06L462.31,83.45L465.2,86.66L468.09,91.48L470.98,88.27L473.87,86.66L476.76,85.06L479.65,96.3L482.54,86.66L485.43,93.09L488.32,85.06L491.21,80.24L494.1,94.7L496.98,96.3L502.76,99.51L505.65,81.84L508.54,93.09L511.43,94.7L514.32,94.7L517.21,88.27L520.1,93.09L522.99,83.45L525.88,86.66L528.77,93.09L531.66,85.06L534.55,83.45L537.44,83.45L540.33,94.7L543.22,96.3L546.11,91.48L548.99,88.27L551.88,88.27L554.77,96.3L557.66,88.27L560.55,86.66L563.44,94.7L566.33,96.3L569.22,89.88L572.11,96.3L575,96.3"/></g><g class="points"/><g class="text"/></g><g class="trace scatter trace1f3064" style="stroke-miterlimit: 2; opacity: 1;"><g class="fills"/><g class="errorbars"/><g class="lines"><path class="js-line" style="vector-effect: non-scaling-stroke; fill: none; stroke: rgb(255, 127, 14); stroke-opacity: 1; stroke-width: 2px; opacity: 1;" d="M0,370.5L2.89,266.04L5.78,270.21L8.67,242.36L11.56,226.34L14.45,229.13L17.34,197.79L20.23,195.7L23.12,190.13L26.01,172.71L28.89,160.18L31.78,170.63L34.67,165.75L37.56,156.7L40.45,156.7L46.23,172.71L49.12,143.46L52.01,138.59L54.9,137.89L57.79,128.84L60.68,135.8L63.57,137.2L66.46,133.71L69.35,110.73L72.24,127.45L75.13,123.96L78.02,101.68L80.9,128.14L83.79,117L86.68,103.07L89.57,99.59L92.46,99.59L95.35,103.77L98.24,105.16L101.13,77.3L106.91,96.11L109.8,111.43L112.69,84.96L115.58,84.27L118.47,89.14L121.36,89.84L124.25,89.84L127.14,80.09L130.03,84.27L132.91,56.41L135.8,74.52L138.69,80.79L141.58,75.21L144.47,66.16L147.36,71.04L150.25,61.98L153.14,57.11L156.03,63.38L158.92,68.95L161.81,61.29L164.7,62.68L167.59,69.64L173.37,58.5L176.26,61.29L179.15,67.55L182.04,59.2L184.92,45.96L187.81,60.59L190.7,69.64L193.59,43.18L196.48,55.02L199.37,59.2L202.26,57.8L205.15,59.89L208.04,49.45L210.93,59.89L213.82,59.89L216.71,45.27L219.6,61.98L222.49,48.05L225.38,50.84L228.27,45.27L231.16,60.59L234.05,38.3L236.93,50.84L239.82,57.8L242.71,60.59L245.6,66.86L248.49,49.45L251.38,74.52L254.27,51.54L257.16,45.96L260.05,55.02L262.94,53.63L265.83,68.25L268.72,64.07L271.61,47.36L274.5,59.2L277.39,62.68L280.28,44.57L283.17,54.32L286.06,48.75L288.94,52.23L291.83,44.57L294.72,48.75L297.61,43.18L300.5,44.57L303.39,56.41L309.17,54.32L312.06,54.32L314.95,56.41L317.84,36.21L320.73,50.84L323.62,48.75L326.51,63.38L329.4,43.88L332.29,35.52L335.18,44.57L338.07,50.14L340.95,45.27L343.84,37.61L346.73,39L349.62,48.75L352.51,49.45L355.4,50.14L358.29,33.43L361.18,55.02L364.07,39L366.96,56.41L369.85,48.75L372.74,43.88L375.63,55.02L381.41,37.61L384.3,43.18L387.19,50.14L390.08,49.45L392.96,52.93L395.85,44.57L398.74,50.84L401.63,51.54L404.52,44.57L407.41,51.54L410.3,42.48L413.19,41.79L416.08,47.36L418.97,39L421.86,37.61L424.75,46.66L427.64,50.84L430.53,39L433.42,45.27L436.31,39.7L439.2,51.54L442.09,52.93L444.97,41.79L447.86,34.82L450.75,41.79L453.64,33.43L459.42,48.05L462.31,36.91L465.2,24.38L468.09,36.91L470.98,34.82L473.87,48.75L476.76,19.5L479.65,43.18L482.54,32.04L485.43,32.73L488.32,45.96L491.21,30.64L494.1,36.91L496.98,45.96L499.87,41.79L502.76,30.64L505.65,45.27L508.54,35.52L511.43,45.96L514.32,45.96L517.21,33.43L520.1,33.43L522.99,42.48L525.88,44.57L528.77,47.36L531.66,38.3L534.55,36.91L537.44,46.66L543.22,29.95L546.11,34.82L548.99,48.05L551.88,42.48L554.77,43.18L557.66,52.93L560.55,28.55L563.44,47.36L566.33,29.95L569.22,50.84L572.11,25.77"/></g><g class="points"/><g class="text"/></g></g></g><g class="overplot"/><path class="xlines-above crisp" style="fill: none;" d="M0,0"/><path class="ylines-above crisp" style="fill: none;" d="M0,0"/><g class="overlines-above"/><g class="xaxislayer-above"><g class="xtick"><text text-anchor="middle" x="0" y="433" style="font-family: TOBESTRIPPEDOpen SansTOBESTRIPPED, verdana, arial, sans-serif; font-size: 12px; fill: rgb(68, 68, 68); fill-opacity: 1; white-space: pre;" transform="translate(110.62,0)">5k</text></g><g class="xtick"><text text-anchor="middle" x="0" y="433" style="font-family: TOBESTRIPPEDOpen SansTOBESTRIPPED, verdana, arial, sans-serif; font-size: 12px; fill: rgb(68, 68, 68); fill-opacity: 1; white-space: pre;" transform="translate(194.13,0)">10k</text></g><g class="xtick"><text text-anchor="middle" x="0" y="433" style="font-family: TOBESTRIPPEDOpen SansTOBESTRIPPED, verdana, arial, sans-serif; font-size: 12px; fill: rgb(68, 68, 68); fill-opacity: 1; white-space: pre;" transform="translate(277.64,0)">15k</text></g><g class="xtick"><text text-anchor="middle" x="0" y="433" style="font-family: TOBESTRIPPEDOpen SansTOBESTRIPPED, verdana, arial, sans-serif; font-size: 12px; fill: rgb(68, 68, 68); fill-opacity: 1; white-space: pre;" transform="translate(361.15,0)">20k</text></g><g class="xtick"><text text-anchor="middle" x="0" y="433" style="font-family: TOBESTRIPPEDOpen SansTOBESTRIPPED, verdana, arial, sans-serif; font-size: 12px; fill: rgb(68, 68, 68); fill-opacity: 1; white-space: pre;" transform="translate(444.66,0)">25k</text></g><g class="xtick"><text text-anchor="middle" x="0" y="433" style="font-family: TOBESTRIPPEDOpen SansTOBESTRIPPED, verdana, arial, sans-serif; font-size: 12px; fill: rgb(68, 68, 68); fill-opacity: 1; white-space: pre;" transform="translate(528.1700000000001,0)">30k</text></g></g><g class="yaxislayer-above"><g class="ytick"><text text-anchor="end" x="29" y="4.199999999999999" style="font-family: TOBESTRIPPEDOpen SansTOBESTRIPPED, verdana, arial, sans-serif; font-size: 12px; fill: rgb(68, 68, 68); fill-opacity: 1; white-space: pre;" transform="translate(0,396.18)">0.55</text></g><g class="ytick"><text text-anchor="end" x="29" y="4.199999999999999" style="font-family: TOBESTRIPPEDOpen SansTOBESTRIPPED, verdana, arial, sans-serif; font-size: 12px; fill: rgb(68, 68, 68); fill-opacity: 1; white-space: pre;" transform="translate(0,347.99)">0.6</text></g><g class="ytick"><text text-anchor="end" x="29" y="4.199999999999999" style="font-family: TOBESTRIPPEDOpen SansTOBESTRIPPED, verdana, arial, sans-serif; font-size: 12px; fill: rgb(68, 68, 68); fill-opacity: 1; white-space: pre;" transform="translate(0,299.8)">0.65</text></g><g class="ytick"><text text-anchor="end" x="29" y="4.199999999999999" style="font-family: TOBESTRIPPEDOpen SansTOBESTRIPPED, verdana, arial, sans-serif; font-size: 12px; fill: rgb(68, 68, 68); fill-opacity: 1; white-space: pre;" transform="translate(0,251.6)">0.7</text></g><g class="ytick"><text text-anchor="end" x="29" y="4.199999999999999" style="font-family: TOBESTRIPPEDOpen SansTOBESTRIPPED, verdana, arial, sans-serif; font-size: 12px; fill: rgb(68, 68, 68); fill-opacity: 1; white-space: pre;" transform="translate(0,203.41)">0.75</text></g><g class="ytick"><text text-anchor="end" x="29" y="4.199999999999999" style="font-family: TOBESTRIPPEDOpen SansTOBESTRIPPED, verdana, arial, sans-serif; font-size: 12px; fill: rgb(68, 68, 68); fill-opacity: 1; white-space: pre;" transform="translate(0,155.22)">0.8</text></g><g class="ytick"><text text-anchor="end" x="29" y="4.199999999999999" style="font-family: TOBESTRIPPEDOpen SansTOBESTRIPPED, verdana, arial, sans-serif; font-size: 12px; fill: rgb(68, 68, 68); fill-opacity: 1; white-space: pre;" transform="translate(0,107.02)">0.85</text></g><g class="ytick"><text text-anchor="end" x="29" y="4.199999999999999" style="font-family: TOBESTRIPPEDOpen SansTOBESTRIPPED, verdana, arial, sans-serif; font-size: 12px; fill: rgb(68, 68, 68); fill-opacity: 1; white-space: pre;" transform="translate(0,58.83)">0.9</text></g></g><g class="overaxes-above"/></g></g><g class="polarlayer"/><g class="ternarylayer"/><g class="geolayer"/><g class="pielayer"/><g class="glimages"/><defs id="topdefs-89fbd3"><g class="clips"/><clipPath id="legend89fbd3"><rect width="71" height="48" x="0" y="0"/></clipPath></defs><g class="layer-above"><g class="imagelayer"/><g class="shapelayer"/></g><g class="infolayer"><g class="legend" pointer-events="all" transform="translate(616.5, 30)"><rect class="bg" shape-rendering="crispEdges" style="stroke: rgb(68, 68, 68); stroke-opacity: 1; fill: rgb(255, 255, 255); fill-opacity: 1; stroke-width: 0px;" width="71" height="48" x="0" y="0"/><g class="scrollbox" transform="translate(0, 0)" clip-path="url(#legend89fbd3)"><g class="groups"><g class="traces" style="opacity: 1;" transform="translate(0, 14.5)"><g class="layers" style="opacity: 1;"><g class="legendfill"/><g class="legendlines"><path class="js-line" d="M5,0h30" style="fill: none; stroke: rgb(31, 119, 180); stroke-opacity: 1; stroke-width: 2px;"/></g><g class="legendsymbols"><g class="legendpoints"/></g></g><text class="legendtext user-select-none" text-anchor="start" style="font-family: TOBESTRIPPEDOpen SansTOBESTRIPPED, verdana, arial, sans-serif; font-size: 12px; fill: rgb(68, 68, 68); fill-opacity: 1; white-space: pre;" x="40" y="4.680000000000001">val</text><rect class="legendtoggle" style="cursor: pointer; fill: rgb(0, 0, 0); fill-opacity: 0;" pointer-events="all" x="0" y="-9.5" width="111" height="19"/></g><g class="traces" style="opacity: 1;" transform="translate(0, 33.5)"><g class="layers" style="opacity: 1;"><g class="legendfill"/><g class="legendlines"><path class="js-line" d="M5,0h30" style="fill: none; stroke: rgb(255, 127, 14); stroke-opacity: 1; stroke-width: 2px;"/></g><g class="legendsymbols"><g class="legendpoints"/></g></g><text class="legendtext user-select-none" text-anchor="start" style="font-family: TOBESTRIPPEDOpen SansTOBESTRIPPED, verdana, arial, sans-serif; font-size: 12px; fill: rgb(68, 68, 68); fill-opacity: 1; white-space: pre;" x="40" y="4.680000000000001">train</text><rect class="legendtoggle" style="cursor: pointer; fill: rgb(0, 0, 0); fill-opacity: 0;" pointer-events="all" x="0" y="-9.5" width="111" height="19"/></g></g></g><rect class="scrollbar" rx="20" ry="3" width="0" height="0" style="fill: rgb(128, 139, 164); fill-opacity: 1;" x="0" y="0"/></g><g class="g-gtitle"><text class="gtitle" style="font-family: TOBESTRIPPEDOpen SansTOBESTRIPPED, verdana, arial, sans-serif; font-size: 17px; fill: rgb(68, 68, 68); opacity: 1; font-weight: normal; white-space: pre;" x="350" y="15" text-anchor="middle" dy="0em">acc</text></g><g class="g-xtitle" transform="translate(0,-26)"><text class="xtitle" style="font-family: TOBESTRIPPEDOpen SansTOBESTRIPPED, verdana, arial, sans-serif; font-size: 14px; fill: rgb(68, 68, 68); opacity: 1; font-weight: normal; white-space: pre;" x="317.5" y="472" text-anchor="middle">iterations</text></g><g class="g-ytitle" transform="translate(22,0)"><text class="ytitle" transform="rotate(-90,-8,225)" style="font-family: TOBESTRIPPEDOpen SansTOBESTRIPPED, verdana, arial, sans-serif; font-size: 14px; fill: rgb(68, 68, 68); opacity: 1; font-weight: normal; white-space: pre;" x="-8" y="225" text-anchor="middle">acc</text></g></g></svg>