<svg class="main-svg" xmlns="http://www.w3.org/2000/svg" xmlns:xlink="http://www.w3.org/1999/xlink" width="700" height="450" style="" viewBox="0 0 700 450"><rect x="0" y="0" width="700" height="450" style="fill: rgb(255, 255, 255); fill-opacity: 1;"/><defs id="defs-6835e3"><g class="clips"><clipPath id="clip6835e3xyplot" class="plotclip"><rect width="575" height="390"/></clipPath><clipPath class="axesclip" id="clip6835e3x"><rect x="30" y="0" width="575" height="450"/></clipPath><clipPath class="axesclip" id="clip6835e3y"><rect x="0" y="30" width="700" height="390"/></clipPath><clipPath class="axesclip" id="clip6835e3xy"><rect x="30" y="30" width="575" height="390"/></clipPath></g><g class="gradients"/></defs><g class="bglayer"/><g class="layer-below"><g class="imagelayer"/><g class="shapelayer"/></g><g class="cartesianlayer"><g class="subplot xy"><g class="layer-subplot"><g class="shapelayer"/><g class="imagelayer"/></g><g class="gridlayer"><g class="x"><path class="xgrid crisp" transform="translate(111.03,0)" d="M0,30v390" style="stroke: rgb(238, 238, 238); stroke-opacity: 1; stroke-width: 1px;"/><path class="xgrid crisp" transform="translate(194.96,0)" d="M0,30v390" style="stroke: rgb(238, 238, 238); stroke-opacity: 1; stroke-width: 1px;"/><path class="xgrid crisp" transform="translate(278.89,0)" d="M0,30v390" style="stroke: rgb(238, 238, 238); stroke-opacity: 1; stroke-width: 1px;"/><path class="xgrid crisp" transform="translate(362.82,0)" d="M0,30v390" style="stroke: rgb(238, 238, 238); stroke-opacity: 1; stroke-width: 1px;"/><path class="xgrid crisp" transform="translate(446.75,0)" d="M0,30v390" style="stroke: rgb(238, 238, 238); stroke-opacity: 1; stroke-width: 1px;"/><path class="xgrid crisp" transform="translate(530.69,0)" d="M0,30v390" style="stroke: rgb(238, 238, 238); stroke-opacity: 1; stroke-width: 1px;"/></g><g class="y"><path class="ygrid crisp" transform="translate(0,384.46)" d="M30,0h575" style="stroke: rgb(238, 238, 238); stroke-opacity: 1; stroke-width: 1px;"/><path class="ygrid crisp" transform="translate(0,339.01)" d="M30,0h575" style="stroke: rgb(238, 238, 238); stroke-opacity: 1; stroke-width: 1px;"/><path class="ygrid crisp" transform="translate(0,293.57)" d="M30,0h575" style="stroke: rgb(238, 238, 238); stroke-opacity: 1; stroke-width: 1px;"/><path class="ygrid crisp" transform="translate(0,248.12)" d="M30,0h575" style="stroke: rgb(238, 238, 238); stroke-opacity: 1; stroke-width: 1px;"/><path class="ygrid crisp" transform="translate(0,202.67)" d="M30,0h575" style="stroke: rgb(238, 238, 238); stroke-opacity: 1; stroke-width: 1px;"/><path class="ygrid crisp" transform="translate(0,157.23000000000002)" d="M30,0h575" style="stroke: rgb(238, 238, 238); stroke-opacity: 1; stroke-width: 1px;"/><path class="ygrid crisp" transform="translate(0,111.78)" d="M30,0h575" style="stroke: rgb(238, 238, 238); stroke-opacity: 1; stroke-width: 1px;"/><path class="ygrid crisp" transform="translate(0,66.33)" d="M30,0h575" style="stroke: rgb(238, 238, 238); stroke-opacity: 1; stroke-width: 1px;"/></g></g><g class="zerolinelayer"/><path class="xlines-below"/><path class="ylines-below"/><g class="overlines-below"/><g class="xaxislayer-below"/><g class="yaxislayer-below"/><g class="overaxes-below"/><g class="plot" transform="translate(30, 30)" clip-path="url(#clip6835e3xyplot)"><g class="scatterlayer mlayer"><g class="trace scatter tracedb46c4" style="stroke-miterlimit: 2; opacity: 1;"><g class="fills"/><g class="errorbars"/><g class="lines"><path class="js-line" style="vector-effect: non-scaling-stroke; fill: none; stroke: rgb(31, 119, 180); stroke-opacity: 1; stroke-width: 2px; opacity: 1;" d="M0,176.15L2.9,141.12L5.81,226.96L8.71,214.7L11.62,225.21L14.52,246.81L17.42,244.51L20.33,266.64L23.23,274.3L26.14,250.84L29.04,290L31.94,243.11L34.85,284.99L37.75,278.97L40.66,278.02L43.56,290.67L46.46,274.72L49.37,301.42L52.27,258.94L55.18,256.64L58.08,309.42L60.98,282.42L63.89,273.03L66.79,261.75L69.7,262.78L72.6,252.11L75.51,309.08L78.41,299.9L81.31,286.02L84.22,261.9L87.12,290.87L90.03,303.17L92.93,297.45L95.83,273.52L98.74,292.94L101.64,314.35L104.55,306.05L107.45,299.34L110.35,288.72L113.26,317.11L116.16,318.15L119.07,311.62L121.97,296.98L124.87,296.99L127.78,302.94L130.68,305.08L133.59,314.86L136.49,308L139.39,321.53L142.3,316.29L145.2,315.4L148.11,314.17L151.01,311.43L153.91,307.42L156.82,306.42L159.72,304.32L162.63,311.65L165.53,303.96L168.43,312.41L171.34,306.64L174.24,321.72L177.15,318.52L180.05,317.16L182.95,313.01L185.86,310.47L188.76,314.95L191.67,308.55L194.57,316.32L197.47,310.8L200.38,303.25L203.28,313.85L206.19,314.57L209.09,311.43L211.99,312.62L214.9,315.54L217.8,316.52L220.71,316.52L223.61,312.96L226.52,315.13L229.42,317.53L232.32,315.66L235.23,314.58L238.13,316.41L241.04,309.7L243.94,311.52L246.84,311.97L249.75,317.49L252.65,308.9L255.56,312.3L258.46,314.68L261.36,308.81L264.27,312.12L267.17,309.51L270.08,306.58L272.98,312.53L275.88,312.44L278.79,316.27L281.69,309.76L284.6,308.37L290.4,314.74L293.31,314.65L299.12,312.36L302.02,315.09L304.92,311.87L307.83,313.89L310.73,312.38L313.64,314.41L316.54,314.25L319.44,312.12L322.35,309.95L325.25,311.01L328.16,314L331.06,308.22L333.96,314.23L336.87,310.15L339.77,316.17L342.68,314.31L345.58,312.29L348.48,311.32L351.39,312.3L354.29,314.2L357.2,311.1L360.1,315.44L363.01,317.23L365.91,317.7L371.72,315.57L374.62,318.72L377.53,315.23L380.43,313.89L383.33,314.07L386.24,310.9L389.14,311.15L392.05,312.68L394.95,310.03L397.85,310.77L400.76,313.14L403.66,310.2L406.57,306.64L409.47,305.98L412.37,306.76L415.28,315.49L418.18,311.8L421.09,314.15L423.99,311.3L426.89,311.02L429.8,315.01L432.7,306.99L435.61,308.48L438.51,306.11L441.41,310.89L444.32,312.51L447.22,311.87L450.13,316.36L453.03,314.6L455.93,311.08L458.84,310.68L461.74,314.47L464.65,315.11L467.55,312.92L470.45,304.23L473.36,311.51L476.26,311.65L479.17,305.07L482.07,303.77L484.97,312.53L487.88,308.22L490.78,314.45L493.69,316.92L496.59,310.67L499.49,309.99L502.4,311.84L505.3,309.1L508.21,311.89L511.11,307.78L514.02,305.54L516.92,307.65L519.82,306.84L522.73,310.01L525.63,311L528.54,310.21L531.44,305.41L534.34,310.35L537.25,312.46L540.15,310.97L543.06,306.61L545.96,310.62L548.86,306.04L551.77,308.85L554.67,308.41L557.58,303.18L560.48,306.83L563.38,307.18L566.29,304.86L572.1,306.38L575,304.05"/></g><g class="points"/><g class="text"/></g><g class="trace scatter tracec8e3bc" style="stroke-miterlimit: 2; opacity: 1;"><g class="fills"/><g class="errorbars"/><g class="lines"><path class="js-line" style="vector-effect: non-scaling-stroke; fill: none; stroke: rgb(255, 127, 14); stroke-opacity: 1; stroke-width: 2px; opacity: 1;" d="M0,19.5L2.9,106.75L5.81,122.16L8.71,151.86L11.62,147.13L17.42,180.16L20.33,178.61L23.23,181.35L26.14,208.91L29.04,217.44L31.94,210.53L34.85,223.57L37.75,215.59L43.56,224.66L46.46,210.8L49.37,235.15L52.27,249.52L55.18,250.76L58.08,241.34L60.98,252.39L63.89,257.77L66.79,268.33L69.7,269.91L72.6,255.39L75.51,268.09L78.41,284.59L81.31,268.13L84.22,279.95L87.12,287.42L90.03,287.64L92.93,281.33L95.83,278.88L98.74,293.09L101.64,311.97L104.55,300.87L107.45,302.38L110.35,274.14L113.26,303.89L116.16,297.13L119.07,293.41L121.97,295.46L124.87,315.66L127.78,312.17L130.68,315.3L133.59,330.17L136.49,314.07L139.39,321.8L142.3,314.46L145.2,326.01L148.11,320.49L151.01,334.93L153.91,324.17L156.82,323.38L159.72,327.9L162.63,336.68L168.43,321.51L171.34,337.2L177.15,335.16L180.05,335.69L182.95,332.39L185.86,337.45L188.76,337.34L191.67,332.58L194.57,333.99L197.47,337.2L200.38,339.6L203.28,336.06L206.19,327.96L209.09,339.49L211.99,329.55L214.9,333.91L217.8,339.07L220.71,333.16L223.61,341.13L226.52,342.06L229.42,342.2L232.32,325.64L235.23,349.21L238.13,330.85L241.04,352.34L243.94,335.87L246.84,328.99L249.75,327.64L252.65,323.5L255.56,341.73L258.46,356.08L261.36,342.68L267.17,331.87L270.08,328.11L272.98,353.16L275.88,334.26L278.79,331.97L281.69,337.81L284.6,331.49L287.5,337.28L290.4,337.94L293.31,349.74L296.21,338.7L299.12,341.74L302.02,346.77L304.92,328.83L307.83,341.08L310.73,348.94L313.64,342.08L316.54,342.27L319.44,346.85L322.35,339.31L325.25,347.52L328.16,333.8L333.96,359.82L336.87,354.12L339.77,336.09L342.68,347.51L345.58,354.77L348.48,350.95L351.39,339.46L354.29,345.3L357.2,348.6L360.1,353.82L363.01,339.16L365.91,359.07L368.81,333.82L371.72,341.49L374.62,351.13L377.53,349.6L380.43,352.16L383.33,357.71L386.24,348.13L389.14,361.99L392.05,347.33L394.95,346.79L397.85,346.73L400.76,345.4L403.66,342.83L406.57,350.05L409.47,349.5L412.37,358.75L415.28,346.63L418.18,355.34L421.09,360.56L423.99,359.41L426.89,355.34L429.8,338.37L432.7,355.45L435.61,353.47L438.51,359.74L441.41,346.33L444.32,342.5L447.22,349.7L450.13,360.05L453.03,347.79L455.93,363.9L458.84,349.41L461.74,343.91L464.65,360.82L467.55,361.56L470.45,364.32L476.26,348.11L479.17,369.83L482.07,355.06L484.97,360.98L487.88,361.9L490.78,343.59L493.69,367.25L496.59,359.38L499.49,354.62L502.4,356.96L505.3,353.21L508.21,347.97L511.11,363.5L514.02,349.9L516.92,346.37L519.82,364.59L522.73,358.22L525.63,354.34L528.54,358.14L531.44,353.61L534.34,352.82L537.25,359.27L540.15,349.34L543.06,358.42L545.96,355.25L548.86,360.62L551.77,352.85L554.67,356.93L557.58,359.28L560.48,352.61L563.38,355.27L566.29,344.9L569.19,370.5L572.1,350.83L575,368.87"/></g><g class="points"/><g class="text"/></g></g></g><g class="overplot"/><path class="xlines-above crisp" style="fill: none;" d="M0,0"/><path class="ylines-above crisp" style="fill: none;" d="M0,0"/><g class="overlines-above"/><g class="xaxislayer-above"><g class="xtick"><text text-anchor="middle" x="0" y="433" style="font-family: TOBESTRIPPEDOpen SansTOBESTRIPPED, verdana, arial, sans-serif; font-size: 12px; fill: rgb(68, 68, 68); fill-opacity: 1; white-space: pre;" transform="translate(111.03,0)">5k</text></g><g class="xtick"><text text-anchor="middle" x="0" y="433" style="font-family: TOBESTRIPPEDOpen SansTOBESTRIPPED, verdana, arial, sans-serif; font-size: 12px; fill: rgb(68, 68, 68); fill-opacity: 1; white-space: pre;" transform="translate(194.96,0)">10k</text></g><g class="xtick"><text text-anchor="middle" x="0" y="433" style="font-family: TOBESTRIPPEDOpen SansTOBESTRIPPED, verdana, arial, sans-serif; font-size: 12px; fill: rgb(68, 68, 68); fill-opacity: 1; white-space: pre;" transform="translate(278.89,0)">15k</text></g><g class="xtick"><text text-anchor="middle" x="0" y="433" style="font-family: TOBESTRIPPEDOpen SansTOBESTRIPPED, verdana, arial, sans-serif; font-size: 12px; fill: rgb(68, 68, 68); fill-opacity: 1; white-space: pre;" transform="translate(362.82,0)">20k</text></g><g class="xtick"><text text-anchor="middle" x="0" y="433" style="font-family: TOBESTRIPPEDOpen SansTOBESTRIPPED, verdana, arial, sans-serif; font-size: 12px; fill: rgb(68, 68, 68); fill-opacity: 1; white-space: pre;" transform="translate(446.75,0)">25k</text></g><g class="xtick"><text text-anchor="middle" x="0" y="433" style="font-family: TOBESTRIPPEDOpen SansTOBESTRIPPED, verdana, arial, sans-serif; font-size: 12px; fill: rgb(68, 68, 68); fill-opacity: 1; white-space: pre;" transform="translate(530.69,0)">30k</text></g></g><g class="yaxislayer-above"><g class="ytick"><text text-anchor="end" x="29" y="4.199999999999999" style="font-family: TOBESTRIPPEDOpen SansTOBESTRIPPED, verdana, arial, sans-serif; font-size: 12px; fill: rgb(68, 68, 68); fill-opacity: 1; white-space: pre;" transform="translate(0,384.46)">0.3</text></g><g class="ytick"><text text-anchor="end" x="29" y="4.199999999999999" style="font-family: TOBESTRIPPEDOpen SansTOBESTRIPPED, verdana, arial, sans-serif; font-size: 12px; fill: rgb(68, 68, 68); fill-opacity: 1; white-space: pre;" transform="translate(0,339.01)">0.4</text></g><g class="ytick"><text text-anchor="end" x="29" y="4.199999999999999" style="font-family: TOBESTRIPPEDOpen SansTOBESTRIPPED, verdana, arial, sans-serif; font-size: 12px; fill: rgb(68, 68, 68); fill-opacity: 1; white-space: pre;" transform="translate(0,293.57)">0.5</text></g><g class="ytick"><text text-anchor="end" x="29" y="4.199999999999999" style="font-family: TOBESTRIPPEDOpen SansTOBESTRIPPED, verdana, arial, sans-serif; font-size: 12px; fill: rgb(68, 68, 68); fill-opacity: 1; white-space: pre;" transform="translate(0,248.12)">0.6</text></g><g class="ytick"><text text-anchor="end" x="29" y="4.199999999999999" style="font-family: TOBESTRIPPEDOpen SansTOBESTRIPPED, verdana, arial, sans-serif; font-size: 12px; fill: rgb(68, 68, 68); fill-opacity: 1; white-space: pre;" transform="translate(0,202.67)">0.7</text></g><g class="ytick"><text text-anchor="end" x="29" y="4.199999999999999" style="font-family: TOBESTRIPPEDOpen SansTOBESTRIPPED, verdana, arial, sans-serif; font-size: 12px; fill: rgb(68, 68, 68); fill-opacity: 1; white-space: pre;" transform="translate(0,157.23000000000002)">0.8</text></g><g class="ytick"><text text-anchor="end" x="29" y="4.199999999999999" style="font-family: TOBESTRIPPEDOpen SansTOBESTRIPPED, verdana, arial, sans-serif; font-size: 12px; fill: rgb(68, 68, 68); fill-opacity: 1; white-space: pre;" transform="translate(0,111.78)">0.9</text></g><g class="ytick"><text text-anchor="end" x="29" y="4.199999999999999" style="font-family: TOBESTRIPPEDOpen SansTOBESTRIPPED, verdana, arial, sans-serif; font-size: 12px; fill: rgb(68, 68, 68); fill-opacity: 1; white-space: pre;" transform="translate(0,66.33)">1</text></g></g><g class="overaxes-above"/></g></g><g class="polarlayer"/><g class="ternarylayer"/><g class="geolayer"/><g class="pielayer"/><g class="glimages"/><defs id="topdefs-6835e3"><g class="clips"/><clipPath id="legend6835e3"><rect width="71" height="48" x="0" y="0"/></clipPath></defs><g class="layer-above"><g class="imagelayer"/><g class="shapelayer"/></g><g class="infolayer"><g class="legend" pointer-events="all" transform="translate(616.5, 30)"><rect class="bg" shape-rendering="crispEdges" style="stroke: rgb(68, 68, 68); stroke-opacity: 1; fill: rgb(255, 255, 255); fill-opacity: 1; stroke-width: 0px;" width="71" height="48" x="0" y="0"/><g class="scrollbox" transform="translate(0, 0)" clip-path="url(#legend6835e3)"><g class="groups"><g class="traces" style="opacity: 1;" transform="translate(0, 14.5)"><g class="layers" style="opacity: 1;"><g class="legendfill"/><g class="legendlines"><path class="js-line" d="M5,0h30" style="fill: none; stroke: rgb(31, 119, 180); stroke-opacity: 1; stroke-width: 2px;"/></g><g class="legendsymbols"><g class="legendpoints"/></g></g><text class="legendtext user-select-none" text-anchor="start" style="font-family: TOBESTRIPPEDOpen SansTOBESTRIPPED, verdana, arial, sans-serif; font-size: 12px; fill: rgb(68, 68, 68); fill-opacity: 1; white-space: pre;" x="40" y="4.680000000000001">val</text><rect class="legendtoggle" style="cursor: pointer; fill: rgb(0, 0, 0); fill-opacity: 0;" pointer-events="all" x="0" y="-9.5" width="111" height="19"/></g><g class="traces" style="opacity: 1;" transform="translate(0, 33.5)"><g class="layers" style="opacity: 1;"><g class="legendfill"/><g class="legendlines"><path class="js-line" d="M5,0h30" style="fill: none; stroke: rgb(255, 127, 14); stroke-opacity: 1; stroke-width: 2px;"/></g><g class="legendsymbols"><g class="legendpoints"/></g></g><text class="legendtext user-select-none" text-anchor="start" style="font-family: TOBESTRIPPEDOpen SansTOBESTRIPPED, verdana, arial, sans-serif; font-size: 12px; fill: rgb(68, 68, 68); fill-opacity: 1; white-space: pre;" x="40" y="4.680000000000001">train</text><rect class="legendtoggle" style="cursor: pointer; fill: rgb(0, 0, 0); fill-opacity: 0;" pointer-events="all" x="0" y="-9.5" width="111" height="19"/></g></g></g><rect class="scrollbar" rx="20" ry="3" width="0" height="0" style="fill: rgb(128, 139, 164); fill-opacity: 1;" x="0" y="0"/></g><g class="g-gtitle"><text class="gtitle" style="font-family: TOBESTRIPPEDOpen SansTOBESTRIPPED, verdana, arial, sans-serif; font-size: 17px; fill: rgb(68, 68, 68); opacity: 1; font-weight: normal; white-space: pre;" x="350" y="15" text-anchor="middle" dy="0em">loss</text></g><g class="g-xtitle" transform="translate(0,-26)"><text class="xtitle" style="font-family: TOBESTRIPPEDOpen SansTOBESTRIPPED, verdana, arial, sans-serif; font-size: 14px; fill: rgb(68, 68, 68); opacity: 1; font-weight: normal; white-space: pre;" x="317.5" y="472" text-anchor="middle">iterations</text></g><g class="g-ytitle" transform="translate(22,0)"><text class="ytitle" transform="rotate(-90,-8,225)" style="font-family: TOBESTRIPPEDOpen SansTOBESTRIPPED, verdana, arial, sans-serif; font-size: 14px; fill: rgb(68, 68, 68); opacity: 1; font-weight: normal; white-space: pre;" x="-8" y="225" text-anchor="middle">loss</text></g></g></svg>